<svg xmlns="http://www.w3.org/2000/svg" width="585" height="313" viewBox="0 0 585 313" fill="none"><path fill-rule="evenodd" clip-rule="evenodd" d="M13.1251 313.07C13.1251 313.07 -24.6939 237.442 46.4597 164.047C110.036 98.4685 35.4466 92.4613 107.032 35.1427C152.515 -1.27499 213.59 -6.31813 251.455 6.10789C348.321 37.896 315.782 86.9547 389.12 101.722C462.458 116.49 495.933 79.8317 536.296 113.987C611.386 177.528 568.852 313.07 568.852 313.07H13.1251Z" fill="white" fill-opacity="0.09"></path><path d="M13.8101 312.496C13.4645 312.496 13.1843 312.776 13.1843 313.122C13.1843 313.467 13.4645 313.748 13.8101 313.748V312.496ZM25.5015 313.748C25.8471 313.748 26.1273 313.467 26.1273 313.122C26.1273 312.776 25.8471 312.496 25.5015 312.496V313.748ZM35.577 312.496C35.2314 312.496 34.9513 312.776 34.9513 313.122C34.9513 313.467 35.2314 313.748 35.577 313.748V312.496ZM533.177 313.748C533.522 313.748 533.802 313.467 533.802 313.122C533.802 312.776 533.522 312.496 533.177 312.496V313.748ZM539.283 312.52C538.938 312.52 538.657 312.8 538.657 313.146C538.657 313.491 538.938 313.771 539.283 313.771V312.52ZM548.672 313.771C549.017 313.771 549.297 313.491 549.297 313.146C549.297 312.8 549.017 312.52 548.672 312.52V313.771ZM552.556 312.496C552.21 312.496 551.93 312.776 551.93 313.122C551.93 313.467 552.21 313.748 552.556 313.748V312.496ZM569.005 313.748C569.351 313.748 569.631 313.467 569.631 313.122C569.631 312.776 569.351 312.496 569.005 312.496V313.748ZM13.8101 313.748H25.5015V312.496H13.8101V313.748ZM35.577 313.748H533.177V312.496H35.577V313.748ZM539.283 313.771H548.672V312.52H539.283V313.771ZM552.556 313.748H569.005V312.496H552.556V313.748Z" fill="black"></path><rect x="140.208" y="175.157" width="212.228" height="137.462" fill="#F1FAEE" stroke="black" stroke-width="1.2515"></rect><rect x="454.446" y="187.071" width="58.3376" height="126.134" rx="0.750899" fill="#EFF5FF" stroke="black" stroke-width="1.2515"></rect><mask id="mask0_5_790" style="mask-type:luminance" maskUnits="userSpaceOnUse" x="453" y="186" width="61" height="128"><rect x="454.446" y="187.071" width="58.3376" height="126.134" rx="0.750899" fill="white" stroke="white" stroke-width="1.2515"></rect></mask><g mask="url(#mask0_5_790)"><path fill-rule="evenodd" clip-rule="evenodd" d="M454.592 191.527H512.331H454.592Z" fill="white"></path><path d="M454.592 191.527H512.331" stroke="black" stroke-width="1.2515"></path><path fill-rule="evenodd" clip-rule="evenodd" d="M454.592 202.236H512.331H454.592Z" fill="white"></path><path d="M454.592 202.236H512.331" stroke="black" stroke-width="1.2515"></path><path fill-rule="evenodd" clip-rule="evenodd" d="M454.592 196.881H512.331H454.592Z" fill="white"></path><path d="M454.592 196.881H512.331" stroke="black" stroke-width="1.2515"></path><path fill-rule="evenodd" clip-rule="evenodd" d="M454.592 207.59H512.331H454.592Z" fill="white"></path><path d="M454.592 207.59H512.331" stroke="black" stroke-width="1.2515"></path><path fill-rule="evenodd" clip-rule="evenodd" d="M461.993 186.302V192.016V186.302Z" fill="white"></path><path d="M461.993 186.302V192.016" stroke="black" stroke-width="1.2515"></path><path fill-rule="evenodd" clip-rule="evenodd" d="M461.993 197.011V202.725V197.011Z" fill="white"></path><path d="M461.993 197.011V202.725" stroke="black" stroke-width="1.2515"></path><path fill-rule="evenodd" clip-rule="evenodd" d="M466.999 191.656V197.371V191.656Z" fill="white"></path><path d="M466.999 191.656V197.371" stroke="black" stroke-width="1.2515"></path><path fill-rule="evenodd" clip-rule="evenodd" d="M466.999 202.365V208.079V202.365Z" fill="white"></path><path d="M466.999 202.365V208.079" stroke="black" stroke-width="1.2515"></path><path fill-rule="evenodd" clip-rule="evenodd" d="M475.259 186.302V192.016V186.302Z" fill="white"></path><path d="M475.259 186.302V192.016" stroke="black" stroke-width="1.2515"></path><path fill-rule="evenodd" clip-rule="evenodd" d="M475.259 197.011V202.725V197.011Z" fill="white"></path><path d="M475.259 197.011V202.725" stroke="black" stroke-width="1.2515"></path><path fill-rule="evenodd" clip-rule="evenodd" d="M480.265 191.656V197.371V191.656Z" fill="white"></path><path d="M480.265 191.656V197.371" stroke="black" stroke-width="1.2515"></path><path fill-rule="evenodd" clip-rule="evenodd" d="M480.265 202.365V208.079V202.365Z" fill="white"></path><path d="M480.265 202.365V208.079" stroke="black" stroke-width="1.2515"></path><path fill-rule="evenodd" clip-rule="evenodd" d="M488.275 186.302V192.016V186.302Z" fill="white"></path><path d="M488.275 186.302V192.016" stroke="black" stroke-width="1.2515"></path><path fill-rule="evenodd" clip-rule="evenodd" d="M488.275 197.011V202.725V197.011Z" fill="white"></path><path d="M488.275 197.011V202.725" stroke="black" stroke-width="1.2515"></path><path fill-rule="evenodd" clip-rule="evenodd" d="M493.281 191.656V197.371V191.656Z" fill="white"></path><path d="M493.281 191.656V197.371" stroke="black" stroke-width="1.2515"></path><path fill-rule="evenodd" clip-rule="evenodd" d="M493.281 202.365V208.079V202.365Z" fill="white"></path><path d="M493.281 202.365V208.079" stroke="black" stroke-width="1.2515"></path><path fill-rule="evenodd" clip-rule="evenodd" d="M501.541 186.302V192.016V186.302Z" fill="white"></path><path d="M501.541 186.302V192.016" stroke="black" stroke-width="1.2515"></path><path fill-rule="evenodd" clip-rule="evenodd" d="M501.541 197.011V202.725V197.011Z" fill="white"></path><path d="M501.541 197.011V202.725" stroke="black" stroke-width="1.2515"></path><path fill-rule="evenodd" clip-rule="evenodd" d="M506.547 191.656V197.371V191.656Z" fill="white"></path><path d="M506.547 191.656V197.371" stroke="black" stroke-width="1.2515"></path><path fill-rule="evenodd" clip-rule="evenodd" d="M506.547 202.365V208.079V202.365Z" fill="white"></path><path d="M506.547 202.365V208.079" stroke="black" stroke-width="1.2515"></path><path fill-rule="evenodd" clip-rule="evenodd" d="M454.592 212.748H512.331H454.592Z" fill="white"></path><path d="M454.592 212.748H512.331" stroke="black" stroke-width="1.2515"></path><path fill-rule="evenodd" clip-rule="evenodd" d="M454.592 218.102H512.331H454.592Z" fill="white"></path><path d="M454.592 218.102H512.331" stroke="black" stroke-width="1.2515"></path><path fill-rule="evenodd" clip-rule="evenodd" d="M461.993 207.523V213.237V207.523Z" fill="white"></path><path d="M461.993 207.523V213.237" stroke="black" stroke-width="1.2515"></path><path fill-rule="evenodd" clip-rule="evenodd" d="M466.999 212.878V218.592V212.878Z" fill="white"></path><path d="M466.999 212.878V218.592" stroke="black" stroke-width="1.2515"></path><path fill-rule="evenodd" clip-rule="evenodd" d="M475.259 207.523V213.237V207.523Z" fill="white"></path><path d="M475.259 207.523V213.237" stroke="black" stroke-width="1.2515"></path><path fill-rule="evenodd" clip-rule="evenodd" d="M480.265 212.878V218.592V212.878Z" fill="white"></path><path d="M480.265 212.878V218.592" stroke="black" stroke-width="1.2515"></path><path fill-rule="evenodd" clip-rule="evenodd" d="M488.275 207.523V213.237V207.523Z" fill="white"></path><path d="M488.275 207.523V213.237" stroke="black" stroke-width="1.2515"></path><path fill-rule="evenodd" clip-rule="evenodd" d="M493.281 212.878V218.592V212.878Z" fill="white"></path><path d="M493.281 212.878V218.592" stroke="black" stroke-width="1.2515"></path><path fill-rule="evenodd" clip-rule="evenodd" d="M501.541 207.523V213.237V207.523Z" fill="white"></path><path d="M501.541 207.523V213.237" stroke="black" stroke-width="1.2515"></path><path fill-rule="evenodd" clip-rule="evenodd" d="M506.547 212.878V218.592V212.878Z" fill="white"></path><path d="M506.547 212.878V218.592" stroke="black" stroke-width="1.2515"></path><path fill-rule="evenodd" clip-rule="evenodd" d="M454.592 223.261H512.331H454.592Z" fill="white"></path><path d="M454.592 223.261H512.331" stroke="black" stroke-width="1.2515"></path><path fill-rule="evenodd" clip-rule="evenodd" d="M454.592 228.615H512.331H454.592Z" fill="white"></path><path d="M454.592 228.615H512.331" stroke="black" stroke-width="1.2515"></path><path fill-rule="evenodd" clip-rule="evenodd" d="M461.993 218.036V223.75V218.036Z" fill="white"></path><path d="M461.993 218.036V223.75" stroke="black" stroke-width="1.2515"></path><path fill-rule="evenodd" clip-rule="evenodd" d="M466.999 223.39V229.104V223.39Z" fill="white"></path><path d="M466.999 223.39V229.104" stroke="black" stroke-width="1.2515"></path><path fill-rule="evenodd" clip-rule="evenodd" d="M475.259 218.036V223.75V218.036Z" fill="white"></path><path d="M475.259 218.036V223.75" stroke="black" stroke-width="1.2515"></path><path fill-rule="evenodd" clip-rule="evenodd" d="M480.265 223.39V229.104V223.39Z" fill="white"></path><path d="M480.265 223.39V229.104" stroke="black" stroke-width="1.2515"></path><path fill-rule="evenodd" clip-rule="evenodd" d="M488.275 218.036V223.75V218.036Z" fill="white"></path><path d="M488.275 218.036V223.75" stroke="black" stroke-width="1.2515"></path><path fill-rule="evenodd" clip-rule="evenodd" d="M493.281 223.39V229.104V223.39Z" fill="white"></path><path d="M493.281 223.39V229.104" stroke="black" stroke-width="1.2515"></path><path fill-rule="evenodd" clip-rule="evenodd" d="M501.541 218.036V223.75V218.036Z" fill="white"></path><path d="M501.541 218.036V223.75" stroke="black" stroke-width="1.2515"></path><path fill-rule="evenodd" clip-rule="evenodd" d="M506.547 223.39V229.104V223.39Z" fill="white"></path><path d="M506.547 223.39V229.104" stroke="black" stroke-width="1.2515"></path><path fill-rule="evenodd" clip-rule="evenodd" d="M454.592 233.773H512.331H454.592Z" fill="white"></path><path d="M454.592 233.773H512.331" stroke="black" stroke-width="1.2515"></path><path fill-rule="evenodd" clip-rule="evenodd" d="M454.592 239.128H512.331H454.592Z" fill="white"></path><path d="M454.592 239.128H512.331" stroke="black" stroke-width="1.2515"></path><path fill-rule="evenodd" clip-rule="evenodd" d="M461.993 228.548V234.263V228.548Z" fill="white"></path><path d="M461.993 228.548V234.263" stroke="black" stroke-width="1.2515"></path><path fill-rule="evenodd" clip-rule="evenodd" d="M466.999 233.903V239.617V233.903Z" fill="white"></path><path d="M466.999 233.903V239.617" stroke="black" stroke-width="1.2515"></path><path fill-rule="evenodd" clip-rule="evenodd" d="M475.259 228.548V234.263V228.548Z" fill="white"></path><path d="M475.259 228.548V234.263" stroke="black" stroke-width="1.2515"></path><path fill-rule="evenodd" clip-rule="evenodd" d="M480.265 233.903V239.617V233.903Z" fill="white"></path><path d="M480.265 233.903V239.617" stroke="black" stroke-width="1.2515"></path><path fill-rule="evenodd" clip-rule="evenodd" d="M488.275 228.548V234.263V228.548Z" fill="white"></path><path d="M488.275 228.548V234.263" stroke="black" stroke-width="1.2515"></path><path fill-rule="evenodd" clip-rule="evenodd" d="M493.281 233.903V239.617V233.903Z" fill="white"></path><path d="M493.281 233.903V239.617" stroke="black" stroke-width="1.2515"></path><path fill-rule="evenodd" clip-rule="evenodd" d="M501.541 228.548V234.263V228.548Z" fill="white"></path><path d="M501.541 228.548V234.263" stroke="black" stroke-width="1.2515"></path><path fill-rule="evenodd" clip-rule="evenodd" d="M506.547 233.903V239.617V233.903Z" fill="white"></path><path d="M506.547 233.903V239.617" stroke="black" stroke-width="1.2515"></path><path fill-rule="evenodd" clip-rule="evenodd" d="M454.592 244.286H512.331H454.592Z" fill="white"></path><path d="M454.592 244.286H512.331" stroke="black" stroke-width="1.2515"></path><path fill-rule="evenodd" clip-rule="evenodd" d="M454.592 249.64H512.331H454.592Z" fill="white"></path><path d="M454.592 249.64H512.331" stroke="black" stroke-width="1.2515"></path><path fill-rule="evenodd" clip-rule="evenodd" d="M461.993 239.061V244.775V239.061Z" fill="white"></path><path d="M461.993 239.061V244.775" stroke="black" stroke-width="1.2515"></path><path fill-rule="evenodd" clip-rule="evenodd" d="M466.999 244.415V250.13V244.415Z" fill="white"></path><path d="M466.999 244.415V250.13" stroke="black" stroke-width="1.2515"></path><path fill-rule="evenodd" clip-rule="evenodd" d="M475.259 239.061V244.775V239.061Z" fill="white"></path><path d="M475.259 239.061V244.775" stroke="black" stroke-width="1.2515"></path><path fill-rule="evenodd" clip-rule="evenodd" d="M480.265 244.415V250.13V244.415Z" fill="white"></path><path d="M480.265 244.415V250.13" stroke="black" stroke-width="1.2515"></path><path fill-rule="evenodd" clip-rule="evenodd" d="M488.275 239.061V244.775V239.061Z" fill="white"></path><path d="M488.275 239.061V244.775" stroke="black" stroke-width="1.2515"></path><path fill-rule="evenodd" clip-rule="evenodd" d="M493.281 244.415V250.13V244.415Z" fill="white"></path><path d="M493.281 244.415V250.13" stroke="black" stroke-width="1.2515"></path><path fill-rule="evenodd" clip-rule="evenodd" d="M501.541 239.061V244.775V239.061Z" fill="white"></path><path d="M501.541 239.061V244.775" stroke="black" stroke-width="1.2515"></path><path fill-rule="evenodd" clip-rule="evenodd" d="M506.547 244.415V250.13V244.415Z" fill="white"></path><path d="M506.547 244.415V250.13" stroke="black" stroke-width="1.2515"></path><path fill-rule="evenodd" clip-rule="evenodd" d="M454.592 254.799H512.331H454.592Z" fill="white"></path><path d="M454.592 254.799H512.331" stroke="black" stroke-width="1.2515"></path><path fill-rule="evenodd" clip-rule="evenodd" d="M454.592 260.153H512.331H454.592Z" fill="white"></path><path d="M454.592 260.153H512.331" stroke="black" stroke-width="1.2515"></path><path fill-rule="evenodd" clip-rule="evenodd" d="M461.993 249.574V255.288V249.574Z" fill="white"></path><path d="M461.993 249.574V255.288" stroke="black" stroke-width="1.2515"></path><path fill-rule="evenodd" clip-rule="evenodd" d="M466.999 254.928V260.642V254.928Z" fill="white"></path><path d="M466.999 254.928V260.642" stroke="black" stroke-width="1.2515"></path><path fill-rule="evenodd" clip-rule="evenodd" d="M475.259 249.574V255.288V249.574Z" fill="white"></path><path d="M475.259 249.574V255.288" stroke="black" stroke-width="1.2515"></path><path fill-rule="evenodd" clip-rule="evenodd" d="M480.265 254.928V260.642V254.928Z" fill="white"></path><path d="M480.265 254.928V260.642" stroke="black" stroke-width="1.2515"></path><path fill-rule="evenodd" clip-rule="evenodd" d="M488.275 249.574V255.288V249.574Z" fill="white"></path><path d="M488.275 249.574V255.288" stroke="black" stroke-width="1.2515"></path><path fill-rule="evenodd" clip-rule="evenodd" d="M493.281 254.928V260.642V254.928Z" fill="white"></path><path d="M493.281 254.928V260.642" stroke="black" stroke-width="1.2515"></path><path fill-rule="evenodd" clip-rule="evenodd" d="M501.541 249.574V255.288V249.574Z" fill="white"></path><path d="M501.541 249.574V255.288" stroke="black" stroke-width="1.2515"></path><path fill-rule="evenodd" clip-rule="evenodd" d="M506.547 254.928V260.642V254.928Z" fill="white"></path><path d="M506.547 254.928V260.642" stroke="black" stroke-width="1.2515"></path><path fill-rule="evenodd" clip-rule="evenodd" d="M454.592 265.311H512.331H454.592Z" fill="white"></path><path d="M454.592 265.311H512.331" stroke="black" stroke-width="1.2515"></path><path fill-rule="evenodd" clip-rule="evenodd" d="M454.592 270.665H512.331H454.592Z" fill="white"></path><path d="M454.592 270.665H512.331" stroke="black" stroke-width="1.2515"></path><path fill-rule="evenodd" clip-rule="evenodd" d="M461.993 260.086V265.8V260.086Z" fill="white"></path><path d="M461.993 260.086V265.8" stroke="black" stroke-width="1.2515"></path><path fill-rule="evenodd" clip-rule="evenodd" d="M466.999 265.441V271.155V265.441Z" fill="white"></path><path d="M466.999 265.441V271.155" stroke="black" stroke-width="1.2515"></path><path fill-rule="evenodd" clip-rule="evenodd" d="M475.259 260.086V265.8V260.086Z" fill="white"></path><path d="M475.259 260.086V265.8" stroke="black" stroke-width="1.2515"></path><path fill-rule="evenodd" clip-rule="evenodd" d="M480.265 265.441V271.155V265.441Z" fill="white"></path><path d="M480.265 265.441V271.155" stroke="black" stroke-width="1.2515"></path><path fill-rule="evenodd" clip-rule="evenodd" d="M488.275 260.086V265.8V260.086Z" fill="white"></path><path d="M488.275 260.086V265.8" stroke="black" stroke-width="1.2515"></path><path fill-rule="evenodd" clip-rule="evenodd" d="M493.281 265.441V271.155V265.441Z" fill="white"></path><path d="M493.281 265.441V271.155" stroke="black" stroke-width="1.2515"></path><path fill-rule="evenodd" clip-rule="evenodd" d="M501.541 260.086V265.8V260.086Z" fill="white"></path><path d="M501.541 260.086V265.8" stroke="black" stroke-width="1.2515"></path><path fill-rule="evenodd" clip-rule="evenodd" d="M506.547 265.441V271.155V265.441Z" fill="white"></path><path d="M506.547 265.441V271.155" stroke="black" stroke-width="1.2515"></path><path fill-rule="evenodd" clip-rule="evenodd" d="M454.592 275.824H512.331H454.592Z" fill="white"></path><path d="M454.592 275.824H512.331" stroke="black" stroke-width="1.2515"></path><path fill-rule="evenodd" clip-rule="evenodd" d="M454.592 281.178H512.331H454.592Z" fill="white"></path><path d="M454.592 281.178H512.331" stroke="black" stroke-width="1.2515"></path><path fill-rule="evenodd" clip-rule="evenodd" d="M461.993 270.599V276.313V270.599Z" fill="white"></path><path d="M461.993 270.599V276.313" stroke="black" stroke-width="1.2515"></path><path fill-rule="evenodd" clip-rule="evenodd" d="M466.999 275.953V281.667V275.953Z" fill="white"></path><path d="M466.999 275.953V281.667" stroke="black" stroke-width="1.2515"></path><path fill-rule="evenodd" clip-rule="evenodd" d="M475.259 270.599V276.313V270.599Z" fill="white"></path><path d="M475.259 270.599V276.313" stroke="black" stroke-width="1.2515"></path><path fill-rule="evenodd" clip-rule="evenodd" d="M480.265 275.953V281.667V275.953Z" fill="white"></path><path d="M480.265 275.953V281.667" stroke="black" stroke-width="1.2515"></path><path fill-rule="evenodd" clip-rule="evenodd" d="M488.275 270.599V276.313V270.599Z" fill="white"></path><path d="M488.275 270.599V276.313" stroke="black" stroke-width="1.2515"></path><path fill-rule="evenodd" clip-rule="evenodd" d="M493.281 275.953V281.667V275.953Z" fill="white"></path><path d="M493.281 275.953V281.667" stroke="black" stroke-width="1.2515"></path><path fill-rule="evenodd" clip-rule="evenodd" d="M501.541 270.599V276.313V270.599Z" fill="white"></path><path d="M501.541 270.599V276.313" stroke="black" stroke-width="1.2515"></path><path fill-rule="evenodd" clip-rule="evenodd" d="M506.547 275.953V281.667V275.953Z" fill="white"></path><path d="M506.547 275.953V281.667" stroke="black" stroke-width="1.2515"></path><path fill-rule="evenodd" clip-rule="evenodd" d="M454.592 286.336H512.331H454.592Z" fill="white"></path><path d="M454.592 286.336H512.331" stroke="black" stroke-width="1.2515"></path><path fill-rule="evenodd" clip-rule="evenodd" d="M454.592 291.691H512.331H454.592Z" fill="white"></path><path d="M454.592 291.691H512.331" stroke="black" stroke-width="1.2515"></path><path fill-rule="evenodd" clip-rule="evenodd" d="M461.993 281.111V286.826V281.111Z" fill="white"></path><path d="M461.993 281.111V286.826" stroke="black" stroke-width="1.2515"></path><path fill-rule="evenodd" clip-rule="evenodd" d="M466.999 286.466V292.18V286.466Z" fill="white"></path><path d="M466.999 286.466V292.18" stroke="black" stroke-width="1.2515"></path><path fill-rule="evenodd" clip-rule="evenodd" d="M475.259 281.111V286.826V281.111Z" fill="white"></path><path d="M475.259 281.111V286.826" stroke="black" stroke-width="1.2515"></path><path fill-rule="evenodd" clip-rule="evenodd" d="M480.265 286.466V292.18V286.466Z" fill="white"></path><path d="M480.265 286.466V292.18" stroke="black" stroke-width="1.2515"></path><path fill-rule="evenodd" clip-rule="evenodd" d="M488.275 281.111V286.826V281.111Z" fill="white"></path><path d="M488.275 281.111V286.826" stroke="black" stroke-width="1.2515"></path><path fill-rule="evenodd" clip-rule="evenodd" d="M493.281 286.466V292.18V286.466Z" fill="white"></path><path d="M493.281 286.466V292.18" stroke="black" stroke-width="1.2515"></path><path fill-rule="evenodd" clip-rule="evenodd" d="M501.541 281.111V286.826V281.111Z" fill="white"></path><path d="M501.541 281.111V286.826" stroke="black" stroke-width="1.2515"></path><path fill-rule="evenodd" clip-rule="evenodd" d="M506.547 286.466V292.18V286.466Z" fill="white"></path><path d="M506.547 286.466V292.18" stroke="black" stroke-width="1.2515"></path><path fill-rule="evenodd" clip-rule="evenodd" d="M454.592 296.849H512.331H454.592Z" fill="white"></path><path d="M454.592 296.849H512.331" stroke="black" stroke-width="1.2515"></path><path fill-rule="evenodd" clip-rule="evenodd" d="M454.592 302.203H512.331H454.592Z" fill="white"></path><path d="M454.592 302.203H512.331" stroke="black" stroke-width="1.2515"></path><path fill-rule="evenodd" clip-rule="evenodd" d="M461.993 291.624V297.338V291.624Z" fill="white"></path><path d="M461.993 291.624V297.338" stroke="black" stroke-width="1.2515"></path><path fill-rule="evenodd" clip-rule="evenodd" d="M466.999 296.978V302.693V296.978Z" fill="white"></path><path d="M466.999 296.978V302.693" stroke="black" stroke-width="1.2515"></path><path fill-rule="evenodd" clip-rule="evenodd" d="M475.259 291.624V297.338V291.624Z" fill="white"></path><path d="M475.259 291.624V297.338" stroke="black" stroke-width="1.2515"></path><path fill-rule="evenodd" clip-rule="evenodd" d="M480.265 296.978V302.693V296.978Z" fill="white"></path><path d="M480.265 296.978V302.693" stroke="black" stroke-width="1.2515"></path><path fill-rule="evenodd" clip-rule="evenodd" d="M488.275 291.624V297.338V291.624Z" fill="white"></path><path d="M488.275 291.624V297.338" stroke="black" stroke-width="1.2515"></path><path fill-rule="evenodd" clip-rule="evenodd" d="M493.281 296.978V302.693V296.978Z" fill="white"></path><path d="M493.281 296.978V302.693" stroke="black" stroke-width="1.2515"></path><path fill-rule="evenodd" clip-rule="evenodd" d="M501.541 291.624V297.338V291.624Z" fill="white"></path><path d="M501.541 291.624V297.338" stroke="black" stroke-width="1.2515"></path><path fill-rule="evenodd" clip-rule="evenodd" d="M506.547 296.978V302.693V296.978Z" fill="white"></path><path d="M506.547 296.978V302.693" stroke="black" stroke-width="1.2515"></path><path fill-rule="evenodd" clip-rule="evenodd" d="M454.592 307.361H512.331H454.592Z" fill="white"></path><path d="M454.592 307.361H512.331" stroke="black" stroke-width="1.2515"></path><path fill-rule="evenodd" clip-rule="evenodd" d="M454.592 312.716H512.331H454.592Z" fill="white"></path><path d="M454.592 312.716H512.331" stroke="black" stroke-width="1.2515"></path><path fill-rule="evenodd" clip-rule="evenodd" d="M461.993 302.137V307.851V302.137Z" fill="white"></path><path d="M461.993 302.137V307.851" stroke="black" stroke-width="1.2515"></path><path fill-rule="evenodd" clip-rule="evenodd" d="M466.999 307.491V313.205V307.491Z" fill="white"></path><path d="M466.999 307.491V313.205" stroke="black" stroke-width="1.2515"></path><path fill-rule="evenodd" clip-rule="evenodd" d="M475.259 302.137V307.851V302.137Z" fill="white"></path><path d="M475.259 302.137V307.851" stroke="black" stroke-width="1.2515"></path><path fill-rule="evenodd" clip-rule="evenodd" d="M480.265 307.491V313.205V307.491Z" fill="white"></path><path d="M480.265 307.491V313.205" stroke="black" stroke-width="1.2515"></path><path fill-rule="evenodd" clip-rule="evenodd" d="M488.275 302.137V307.851V302.137Z" fill="white"></path><path d="M488.275 302.137V307.851" stroke="black" stroke-width="1.2515"></path><path fill-rule="evenodd" clip-rule="evenodd" d="M493.281 307.491V313.205V307.491Z" fill="white"></path><path d="M493.281 307.491V313.205" stroke="black" stroke-width="1.2515"></path><path fill-rule="evenodd" clip-rule="evenodd" d="M501.541 302.137V307.851V302.137Z" fill="white"></path><path d="M501.541 302.137V307.851" stroke="black" stroke-width="1.2515"></path><path fill-rule="evenodd" clip-rule="evenodd" d="M506.547 307.491V313.205V307.491Z" fill="white"></path><path d="M506.547 307.491V313.205" stroke="black" stroke-width="1.2515"></path></g><rect x="151.775" y="105.755" width="35.2037" height="63.702" fill="#EFF5FF" stroke="black" stroke-width="1.2515"></rect><rect x="143.561" y="101.211" width="51.6321" height="6.89088" rx="0.750899" fill="#EFF5FF" stroke="black" stroke-width="1.2515"></rect><g opacity="0.199162"><path fill-rule="evenodd" clip-rule="evenodd" d="M186.476 108.102H180.429V108.102H151.942V113.332H180.429V141.294H186.476V108.102Z" fill="#EFF5FF" style="mix-blend-mode:multiply"></path></g><rect x="359.812" y="166.861" width="94.8824" height="145.719" rx="0.750899" fill="#EFF5FF" stroke="black" stroke-width="1.2515"></rect><mask id="mask1_5_790" style="mask-type:luminance" maskUnits="userSpaceOnUse" x="359" y="166" width="97" height="148"><rect x="359.812" y="166.861" width="94.8824" height="145.719" rx="0.750899" fill="white" stroke="white" stroke-width="1.2515"></rect></mask><g mask="url(#mask1_5_790)"><path fill-rule="evenodd" clip-rule="evenodd" d="M375.368 144.252V311.531V144.252Z" fill="white"></path><path d="M375.368 144.252V311.531" stroke="black" stroke-width="1.2515"></path><path fill-rule="evenodd" clip-rule="evenodd" d="M392.115 144.252V311.531V144.252Z" fill="white"></path><path d="M392.115 144.252V311.531" stroke="black" stroke-width="1.2515"></path><path fill-rule="evenodd" clip-rule="evenodd" d="M408.544 144.252V311.531V144.252Z" fill="white"></path><path d="M408.544 144.252V311.531" stroke="black" stroke-width="1.2515"></path><path fill-rule="evenodd" clip-rule="evenodd" d="M424.972 144.252V311.531V144.252Z" fill="white"></path><path d="M424.972 144.252V311.531" stroke="black" stroke-width="1.2515"></path><path fill-rule="evenodd" clip-rule="evenodd" d="M441.4 144.252V311.531V144.252Z" fill="white"></path><path d="M441.4 144.252V311.531" stroke="black" stroke-width="1.2515"></path></g><g opacity="0.199162"><rect x="359.968" y="167.242" width="94.5694" height="11.3993" rx="0.750899" fill="#EFF5FF" style="mix-blend-mode:multiply"></rect></g><rect x="355.898" y="166.861" width="102.71" height="6.28385" rx="0.750899" fill="#EFF5FF" stroke="black" stroke-width="1.2515"></rect><path fill-rule="evenodd" clip-rule="evenodd" d="M247.495 82.2861L368.864 198.961L121.768 199.297L247.495 82.2861Z" fill="#EFF5FF" stroke="black" stroke-width="1.2515"></path><mask id="mask2_5_790" style="mask-type:luminance" maskUnits="userSpaceOnUse" x="120" y="81" width="251" height="119"><path fill-rule="evenodd" clip-rule="evenodd" d="M247.495 82.2861L368.864 198.961L121.768 199.297L247.495 82.2861Z" fill="white" stroke="white" stroke-width="1.2515"></path></mask><g mask="url(#mask2_5_790)"><rect x="131.806" y="82.9688" width="229.516" height="13.3009" stroke="black" stroke-width="1.2515"></rect><rect x="131.937" y="96.2695" width="229.516" height="13.3009" stroke="black" stroke-width="1.2515"></rect><rect x="131.937" y="109.345" width="229.516" height="13.3009" stroke="black" stroke-width="1.2515"></rect><rect x="131.937" y="122.421" width="229.516" height="13.3009" stroke="black" stroke-width="1.2515"></rect><rect x="131.937" y="135.497" width="229.516" height="13.3009" stroke="black" stroke-width="1.2515"></rect><rect x="131.937" y="148.572" width="229.516" height="13.3009" stroke="black" stroke-width="1.2515"></rect><rect x="131.937" y="161.648" width="229.516" height="13.3009" stroke="black" stroke-width="1.2515"></rect><rect x="131.937" y="174.724" width="229.516" height="13.3009" stroke="black" stroke-width="1.2515"></rect><rect x="131.937" y="187.799" width="229.516" height="13.3009" stroke="black" stroke-width="1.2515"></rect><mask id="mask3_5_790" style="mask-type:luminance" maskUnits="userSpaceOnUse" x="121" y="82" width="248" height="118"><path fill-rule="evenodd" clip-rule="evenodd" d="M247.495 82.2861L368.864 198.961L121.768 199.297L247.495 82.2861Z" fill="white"></path></mask><g mask="url(#mask3_5_790)"><g opacity="0.199162"><rect x="141.473" y="187.575" width="207.999" height="5.04624" fill="#EFF5FF" style="mix-blend-mode:multiply"></rect></g><g opacity="0.199162"><rect x="141.473" y="174.328" width="207.999" height="5.04624" fill="#EFF5FF" style="mix-blend-mode:multiply"></rect></g><g opacity="0.199162"><rect x="141.473" y="161.254" width="207.999" height="5.04624" fill="#EFF5FF" style="mix-blend-mode:multiply"></rect></g><g opacity="0.199162"><rect x="141.473" y="148.238" width="207.999" height="5.04624" fill="#EFF5FF" style="mix-blend-mode:multiply"></rect></g><g opacity="0.199162"><rect x="141.473" y="135.222" width="207.999" height="5.04624" fill="#EFF5FF" style="mix-blend-mode:multiply"></rect></g><g opacity="0.199162"><rect x="141.473" y="122.207" width="207.999" height="5.04624" fill="#EFF5FF" style="mix-blend-mode:multiply"></rect></g><g opacity="0.199162"><rect x="141.473" y="109.191" width="207.999" height="5.04624" fill="#EFF5FF" style="mix-blend-mode:multiply"></rect></g></g></g><path fill-rule="evenodd" clip-rule="evenodd" d="M227.462 230.893C227.462 230.478 227.799 230.142 228.213 230.142H264.597C265.012 230.142 265.348 230.478 265.348 230.893V261.606C265.348 262.021 265.012 262.357 264.597 262.357H228.213C227.799 262.357 227.462 262.021 227.462 261.606V246.532V230.893Z" fill="#A8DADC" stroke="black" stroke-width="1.2515"></path><path fill-rule="evenodd" clip-rule="evenodd" d="M227.755 235.189H265.251H227.755Z" fill="#EFF5FF"></path><path d="M227.755 235.189H265.251" stroke="black" stroke-width="0.5006"></path><path fill-rule="evenodd" clip-rule="evenodd" d="M227.755 240.926H265.251H227.755Z" fill="#EFF5FF"></path><path d="M227.755 240.926H265.251" stroke="black" stroke-width="0.5006"></path><path fill-rule="evenodd" clip-rule="evenodd" d="M227.755 246.663H265.251H227.755Z" fill="#EFF5FF"></path><path d="M227.755 246.663H265.251" stroke="black" stroke-width="0.5006"></path><path fill-rule="evenodd" clip-rule="evenodd" d="M227.755 252.4H265.251H227.755Z" fill="#EFF5FF"></path><path d="M227.755 252.4H265.251" stroke="black" stroke-width="0.5006"></path><path fill-rule="evenodd" clip-rule="evenodd" d="M227.755 258.137H265.251H227.755Z" fill="#EFF5FF"></path><path d="M227.755 258.137H265.251" stroke="black" stroke-width="0.5006"></path><path fill-rule="evenodd" clip-rule="evenodd" d="M246.405 230.98V261.49V230.98Z" fill="#EFF5FF"></path><path d="M246.405 230.98V261.49" stroke="black" stroke-width="1.2515"></path><rect x="225.548" y="262.328" width="41.9092" height="3.38188" rx="0.750899" fill="#EFF5FF" stroke="black" stroke-width="1.2515"></rect><g style="mix-blend-mode:overlay"><g style="mix-blend-mode:multiply" opacity="0.536005"><path fill-rule="evenodd" clip-rule="evenodd" d="M234.832 239.945H237.209L233.55 255.395H231.121L234.832 239.945Z" fill="white"></path></g><g style="mix-blend-mode:multiply" opacity="0.536005"><path fill-rule="evenodd" clip-rule="evenodd" d="M239.583 239.945H241.96L238.406 255.395H235.977L239.583 239.945Z" fill="white"></path></g></g><g style="mix-blend-mode:overlay"><g style="mix-blend-mode:multiply" opacity="0.536005"><path fill-rule="evenodd" clip-rule="evenodd" d="M253.3 239.945H255.677L252.018 255.395H249.589L253.3 239.945Z" fill="white"></path></g><g style="mix-blend-mode:multiply" opacity="0.536005"><path fill-rule="evenodd" clip-rule="evenodd" d="M258.051 239.945H260.429L256.874 255.395H254.445L258.051 239.945Z" fill="white"></path></g></g><g opacity="0.0736526"><path fill-rule="evenodd" clip-rule="evenodd" d="M265.544 262.357V232.887V230.142H262.493L227.658 230.142V232.887H262.493V262.357H265.544Z" fill="#EFF5FF" style="mix-blend-mode:multiply"></path></g><g opacity="0.0736526"><rect x="223.629" y="264.675" width="42.9357" height="3.90845" rx="0.750899" fill="#EFF5FF" style="mix-blend-mode:multiply"></rect></g><path fill-rule="evenodd" clip-rule="evenodd" d="M294.265 230.893C294.265 230.478 294.601 230.142 295.016 230.142H331.4C331.815 230.142 332.151 230.478 332.151 230.893V261.606C332.151 262.021 331.815 262.357 331.4 262.357H295.016C294.601 262.357 294.265 262.021 294.265 261.606V246.532V230.893Z" fill="#A8DADC" stroke="black" stroke-width="1.2515"></path><path fill-rule="evenodd" clip-rule="evenodd" d="M294.558 235.189H332.053H294.558Z" fill="#EFF5FF"></path><path d="M294.558 235.189H332.053" stroke="black" stroke-width="0.5006"></path><path fill-rule="evenodd" clip-rule="evenodd" d="M294.558 240.926H332.053H294.558Z" fill="#EFF5FF"></path><path d="M294.558 240.926H332.053" stroke="black" stroke-width="0.5006"></path><path fill-rule="evenodd" clip-rule="evenodd" d="M294.558 246.663H332.053H294.558Z" fill="#EFF5FF"></path><path d="M294.558 246.663H332.053" stroke="black" stroke-width="0.5006"></path><path fill-rule="evenodd" clip-rule="evenodd" d="M294.558 252.4H332.053H294.558Z" fill="#EFF5FF"></path><path d="M294.558 252.4H332.053" stroke="black" stroke-width="0.5006"></path><path fill-rule="evenodd" clip-rule="evenodd" d="M294.558 258.137H332.053H294.558Z" fill="#EFF5FF"></path><path d="M294.558 258.137H332.053" stroke="black" stroke-width="0.5006"></path><path fill-rule="evenodd" clip-rule="evenodd" d="M313.208 230.98V261.49V230.98Z" fill="#EFF5FF"></path><path d="M313.208 230.98V261.49" stroke="black" stroke-width="1.2515"></path><rect x="292.546" y="262.328" width="41.9092" height="3.38188" rx="0.750899" fill="#EFF5FF" stroke="black" stroke-width="1.2515"></rect><g opacity="0.0736526"><path fill-rule="evenodd" clip-rule="evenodd" d="M332.346 262.357L332.346 232.887L332.346 230.142H329.318L294.46 230.142V232.887H329.318V262.357H332.346Z" fill="#EFF5FF" style="mix-blend-mode:multiply"></path></g><g style="mix-blend-mode:overlay"><g style="mix-blend-mode:multiply" opacity="0.536005"><path fill-rule="evenodd" clip-rule="evenodd" d="M301.969 239.741H304.347L300.688 255.593H298.258L301.969 239.741Z" fill="white"></path></g><g style="mix-blend-mode:multiply" opacity="0.536005"><path fill-rule="evenodd" clip-rule="evenodd" d="M306.721 239.741H309.098L305.544 255.593H303.114L306.721 239.741Z" fill="white"></path></g></g><g style="mix-blend-mode:overlay"><g style="mix-blend-mode:multiply" opacity="0.536005"><path fill-rule="evenodd" clip-rule="evenodd" d="M320.103 239.741H322.48L318.821 255.593H316.392L320.103 239.741Z" fill="white"></path></g><g style="mix-blend-mode:multiply" opacity="0.536005"><path fill-rule="evenodd" clip-rule="evenodd" d="M324.854 239.741H327.231L323.677 255.593H321.248L324.854 239.741Z" fill="white"></path></g></g><g opacity="0.0736526"><rect x="290.83" y="264.675" width="41.7695" height="3.90845" rx="0.750899" fill="#EFF5FF" style="mix-blend-mode:multiply"></rect></g><rect x="160.66" y="230.142" width="37.8859" height="82.4773" rx="0.750899" fill="#EFF5FF" stroke="black" stroke-width="1.2515"></rect><rect x="156.431" y="307.59" width="46.3425" height="5.0291" rx="0.750899" fill="#EFF5FF" stroke="black" stroke-width="1.2515"></rect><rect x="167.969" y="238.188" width="23.2675" height="17.4342" rx="0.750899" fill="#A8DADC" stroke="black" stroke-width="1.2515"></rect><g style="mix-blend-mode:overlay"><g style="mix-blend-mode:multiply" opacity="0.536005"><path fill-rule="evenodd" clip-rule="evenodd" d="M176.782 243.767H178.892L175.645 252.151H173.489L176.782 243.767Z" fill="white"></path></g><g style="mix-blend-mode:multiply" opacity="0.536005"><path fill-rule="evenodd" clip-rule="evenodd" d="M180.998 243.767H183.108L179.954 252.151H177.798L180.998 243.767Z" fill="white"></path></g></g><g opacity="0.0736526"><path fill-rule="evenodd" clip-rule="evenodd" d="M191.182 238.066H168.023V241.309H188.076V255.206H191.182V238.066L191.182 238.066Z" fill="#EFF5FF" style="mix-blend-mode:multiply"></path></g><path fill-rule="evenodd" clip-rule="evenodd" d="M192.678 270.542V275.907V270.542Z" fill="#8BA660"></path><path d="M192.678 270.542V275.907" stroke="black" stroke-width="1.2515" stroke-linecap="round"></path><g opacity="0.0736526"><path fill-rule="evenodd" clip-rule="evenodd" d="M198.21 230.142H195.076L160.995 230.142V233.385H195.076V308.213H198.21V230.142Z" fill="#EFF5FF" style="mix-blend-mode:multiply"></path></g><circle cx="213.004" cy="240.867" r="4.02328" fill="#F9F3A5" stroke="black" stroke-width="1.2515"></circle><g opacity="0.0736526"><path fill-rule="evenodd" clip-rule="evenodd" d="M210.639 237.318C210.639 237.318 210.947 239.959 212.269 241.341C213.592 242.723 215.768 243.445 215.768 243.445C215.768 243.445 213.142 245.666 210.664 243.539C208.187 241.413 210.639 237.318 210.639 237.318Z" fill="#EFF5FF" style="mix-blend-mode:multiply"></path></g><circle cx="279.807" cy="240.867" r="4.02328" fill="#F9F3A5" stroke="black" stroke-width="1.2515"></circle><g opacity="0.0736526"><path fill-rule="evenodd" clip-rule="evenodd" d="M277.68 236.947C277.68 236.947 277.988 239.589 279.31 240.971C280.633 242.352 282.809 243.075 282.809 243.075C282.809 243.075 280.183 245.296 277.705 243.169C275.228 241.043 277.68 236.947 277.68 236.947Z" fill="#EFF5FF" style="mix-blend-mode:multiply"></path></g><circle cx="246.476" cy="130.552" r="19.558" fill="#EFF5FF" stroke="black" stroke-width="1.2515"></circle><circle cx="246.476" cy="130.552" r="14.7387" fill="#A8DADC" stroke="black" stroke-width="1.2515"></circle><mask id="mask4_5_790" style="mask-type:luminance" maskUnits="userSpaceOnUse" x="231" y="115" width="31" height="31"><circle cx="246.476" cy="130.552" r="14.7387" fill="white" stroke="white" stroke-width="1.2515"></circle></mask><g mask="url(#mask4_5_790)"><path fill-rule="evenodd" clip-rule="evenodd" d="M246.589 115.927V144.954V115.927Z" fill="white"></path><path d="M246.589 115.927V144.954" stroke="black" stroke-width="1.2515"></path><path fill-rule="evenodd" clip-rule="evenodd" d="M232.077 130.439H261.105H232.077Z" fill="white"></path><path d="M232.077 130.439H261.105" stroke="black" stroke-width="1.2515"></path><g style="mix-blend-mode:overlay"><g style="mix-blend-mode:multiply" opacity="0.536005"><path fill-rule="evenodd" clip-rule="evenodd" d="M243.205 124.874H246.906L241.211 136.522H237.429L243.205 124.874Z" fill="white"></path></g><g style="mix-blend-mode:multiply" opacity="0.536005"><path fill-rule="evenodd" clip-rule="evenodd" d="M250.601 124.874H254.302L248.769 136.522H244.987L250.601 124.874Z" fill="white"></path></g></g></g><g opacity="0.199162"><ellipse cx="246.487" cy="123.022" rx="14.9701" ry="7.20838" fill="#EFF5FF" style="mix-blend-mode:multiply"></ellipse></g><mask id="mask5_5_790" style="mask-type:luminance" maskUnits="userSpaceOnUse" x="231" y="115" width="31" height="16"><ellipse cx="246.487" cy="123.022" rx="14.9701" ry="7.20838" fill="white"></ellipse><ellipse cx="246.487" cy="123.022" rx="14.9701" ry="7.20838" stroke="white"></ellipse></mask><g mask="url(#mask5_5_790)"></g><rect x="148.885" y="259.666" width="5.44695" height="8.36154" rx="0.750899" fill="#EFF5FF" stroke="black" stroke-width="1.2515"></rect><circle cx="151.567" cy="264.182" r="0.670194" fill="black"></circle><g opacity="0.0736526"><path fill-rule="evenodd" clip-rule="evenodd" d="M154.35 259.634H149.406V261.386H152.452V267.642H154.546V260.199H154.35V259.634Z" fill="#EFF5FF" style="mix-blend-mode:multiply"></path></g><rect x="139.202" y="198.961" width="212.228" height="13.4109" fill="#EFF5FF" stroke="black" stroke-width="1.2515"></rect><g opacity="0.199162"><path fill-rule="evenodd" clip-rule="evenodd" d="M137.258 200.565L130.485 190.584L245.274 83.637L246.07 84.4327L246.866 83.637L361.655 190.584L354.882 200.565L246.07 101.316L137.258 200.565Z" fill="#EFF5FF" style="mix-blend-mode:multiply"></path></g><g opacity="0.0453465"><path fill-rule="evenodd" clip-rule="evenodd" d="M351.6 211.702H140.543V219.217H343.768V301.89H356.459V213.043H351.6V211.702Z" fill="#EFF5FF" style="mix-blend-mode:multiply"></path></g><rect x="351.43" y="184.577" width="9.72293" height="128.042" fill="#EFF5FF" stroke="black" stroke-width="1.2515"></rect><rect x="130.485" y="184.577" width="9.72293" height="128.042" fill="#EFF5FF" stroke="black" stroke-width="1.2515"></rect><path fill-rule="evenodd" clip-rule="evenodd" d="M246.453 76.5637C246.251 76.5484 246.044 76.6144 245.884 76.7633L113.935 199.808C113.632 200.09 113.615 200.566 113.898 200.869L119.276 206.636C119.559 206.939 120.034 206.956 120.337 206.673L246.453 89.0689L372.568 206.673C372.871 206.956 373.346 206.939 373.629 206.636L379.007 200.869C379.29 200.566 379.273 200.09 378.97 199.808L247.021 76.7633C246.862 76.6144 246.654 76.5484 246.453 76.5637Z" fill="#EFF5FF"></path><path d="M245.884 76.7633L246.311 77.2209V77.2209L245.884 76.7633ZM246.453 76.5637L246.406 77.1876L246.453 77.1912L246.5 77.1876L246.453 76.5637ZM113.935 199.808L114.362 200.265H114.362L113.935 199.808ZM113.898 200.869L114.356 200.442H114.356L113.898 200.869ZM119.276 206.636L118.819 207.063H118.819L119.276 206.636ZM120.337 206.673L120.764 207.131L120.764 207.131L120.337 206.673ZM246.453 89.0689L246.879 88.6113L246.453 88.2133L246.026 88.6113L246.453 89.0689ZM372.568 206.673L372.995 206.216L372.568 206.673ZM373.629 206.636L374.087 207.063L374.087 207.063L373.629 206.636ZM379.007 200.869L378.55 200.442H378.55L379.007 200.869ZM378.97 199.808L379.397 199.35V199.35L378.97 199.808ZM247.021 76.7633L246.595 77.2209V77.2209L247.021 76.7633ZM246.311 77.2209C246.337 77.1961 246.371 77.185 246.406 77.1876L246.5 75.9397C246.131 75.9119 245.75 76.0326 245.457 76.3056L246.311 77.2209ZM114.362 200.265L246.311 77.2209L245.457 76.3056L113.508 199.35L114.362 200.265ZM114.356 200.442C114.309 200.392 114.311 200.312 114.362 200.265L113.508 199.35C112.952 199.868 112.922 200.74 113.44 201.296L114.356 200.442ZM119.734 206.209L114.356 200.442L113.44 201.296L118.819 207.063L119.734 206.209ZM119.911 206.216C119.86 206.263 119.781 206.26 119.734 206.209L118.819 207.063C119.337 207.619 120.208 207.649 120.764 207.131L119.911 206.216ZM246.026 88.6113L119.911 206.216L120.764 207.131L246.879 89.5265L246.026 88.6113ZM246.026 89.5265L372.141 207.131L372.995 206.216L246.879 88.6113L246.026 89.5265ZM372.141 207.131C372.697 207.649 373.568 207.619 374.087 207.063L373.172 206.209C373.124 206.26 373.045 206.263 372.995 206.216L372.141 207.131ZM374.087 207.063L379.465 201.296L378.55 200.442L373.171 206.209L374.087 207.063ZM379.465 201.296C379.983 200.74 379.953 199.868 379.397 199.35L378.543 200.265C378.594 200.312 378.597 200.392 378.55 200.442L379.465 201.296ZM379.397 199.35L247.448 76.3056L246.595 77.2209L378.543 200.265L379.397 199.35ZM247.448 76.3056C247.155 76.0327 246.774 75.9119 246.406 75.9397L246.5 77.1876C246.535 77.185 246.568 77.1961 246.595 77.2209L247.448 76.3056Z" fill="black"></path><path fill-rule="evenodd" clip-rule="evenodd" d="M312.494 282.002H328.266H312.494Z" fill="#EFF5FF"></path><path d="M312.494 282.002H328.266" stroke="#E2ECDE" stroke-width="1.2515" stroke-linecap="round"></path><path fill-rule="evenodd" clip-rule="evenodd" d="M312.494 286.765H337.64H312.494Z" fill="#EFF5FF"></path><path d="M312.494 286.765H337.64" stroke="#E2ECDE" stroke-width="1.2515" stroke-linecap="round"></path><path fill-rule="evenodd" clip-rule="evenodd" d="M307.8 291.277H332.946H307.8Z" fill="#EFF5FF"></path><path d="M307.8 291.277H332.946" stroke="#E2ECDE" stroke-width="1.2515" stroke-linecap="round"></path><path fill-rule="evenodd" clip-rule="evenodd" d="M317.188 282.236V286.212V282.236Z" fill="#EFF5FF"></path><path d="M317.188 282.236V286.212" stroke="#E2ECDE" stroke-width="1.2515"></path><path fill-rule="evenodd" clip-rule="evenodd" d="M321.276 287.202V291.179V287.202Z" fill="#EFF5FF"></path><path d="M321.276 287.202V291.179" stroke="#E2ECDE" stroke-width="1.2515"></path><path fill-rule="evenodd" clip-rule="evenodd" d="M326.371 282.236V286.212V282.236Z" fill="#EFF5FF"></path><path d="M326.371 282.236V286.212" stroke="#E2ECDE" stroke-width="1.2515"></path><path fill-rule="evenodd" clip-rule="evenodd" d="M330.458 287.202V291.179V287.202Z" fill="#EFF5FF"></path><path d="M330.458 287.202V291.179" stroke="#E2ECDE" stroke-width="1.2515"></path><path fill-rule="evenodd" clip-rule="evenodd" d="M263.635 296.504H247.862H263.635Z" fill="#EFF5FF"></path><path d="M263.635 296.504H247.862" stroke="#E2ECDE" stroke-width="1.2515" stroke-linecap="round"></path><path fill-rule="evenodd" clip-rule="evenodd" d="M263.635 301.267H238.489H263.635Z" fill="#EFF5FF"></path><path d="M263.635 301.267H238.489" stroke="#E2ECDE" stroke-width="1.2515" stroke-linecap="round"></path><path fill-rule="evenodd" clip-rule="evenodd" d="M268.328 305.779H243.183H268.328Z" fill="#EFF5FF"></path><path d="M268.328 305.779H243.183" stroke="#E2ECDE" stroke-width="1.2515" stroke-linecap="round"></path><path fill-rule="evenodd" clip-rule="evenodd" d="M258.941 296.738V300.714V296.738Z" fill="#EFF5FF"></path><path d="M258.941 296.738V300.714" stroke="#E2ECDE" stroke-width="1.2515"></path><path fill-rule="evenodd" clip-rule="evenodd" d="M254.853 301.704V305.681V301.704Z" fill="#EFF5FF"></path><path d="M254.853 301.704V305.681" stroke="#E2ECDE" stroke-width="1.2515"></path><path fill-rule="evenodd" clip-rule="evenodd" d="M249.758 296.738V300.714V296.738Z" fill="#EFF5FF"></path><path d="M249.758 296.738V300.714" stroke="#E2ECDE" stroke-width="1.2515"></path><path fill-rule="evenodd" clip-rule="evenodd" d="M245.67 301.704V305.681V301.704Z" fill="#EFF5FF"></path><path d="M245.67 301.704V305.681" stroke="#E2ECDE" stroke-width="1.2515"></path><path fill-rule="evenodd" clip-rule="evenodd" d="M339.878 312.619C339.886 312.443 339.889 312.266 339.889 312.088C339.889 305.091 334.217 299.419 327.22 299.419C320.223 299.419 314.551 305.091 314.551 312.088C314.551 312.266 314.555 312.443 314.562 312.619H339.878Z" fill="#8BA660"></path><path d="M339.878 312.619V313.245H340.479L340.504 312.645L339.878 312.619ZM314.562 312.619L313.937 312.645L313.962 313.245H314.562V312.619ZM339.264 312.088C339.264 312.257 339.26 312.426 339.253 312.593L340.504 312.645C340.511 312.46 340.515 312.274 340.515 312.088H339.264ZM327.22 300.044C333.872 300.044 339.264 305.436 339.264 312.088H340.515C340.515 304.745 334.563 298.793 327.22 298.793V300.044ZM315.177 312.088C315.177 305.436 320.569 300.044 327.22 300.044V298.793C319.878 298.793 313.926 304.745 313.926 312.088H315.177ZM315.187 312.593C315.181 312.426 315.177 312.257 315.177 312.088H313.926C313.926 312.274 313.929 312.46 313.937 312.645L315.187 312.593ZM314.562 313.245H339.878V311.993H314.562V313.245Z" fill="black"></path><path fill-rule="evenodd" clip-rule="evenodd" d="M367.037 312.619C367.049 312.342 367.054 312.064 367.054 311.784C367.054 300.784 358.137 291.867 347.137 291.867C336.137 291.867 327.22 300.784 327.22 311.784C327.22 312.064 327.226 312.342 327.237 312.619H367.037Z" fill="#8BA660"></path><path d="M367.037 312.619V313.245H367.638L367.662 312.645L367.037 312.619ZM327.237 312.619L326.612 312.645L326.637 313.245H327.237V312.619ZM366.429 311.784C366.429 312.055 366.423 312.325 366.412 312.593L367.662 312.645C367.674 312.359 367.68 312.072 367.68 311.784H366.429ZM347.137 292.493C357.792 292.493 366.429 301.13 366.429 311.784H367.68C367.68 300.439 358.483 291.241 347.137 291.241V292.493ZM327.846 311.784C327.846 301.13 336.483 292.493 347.137 292.493V291.241C335.792 291.241 326.594 300.439 326.594 311.784H327.846ZM327.863 312.593C327.852 312.325 327.846 312.055 327.846 311.784H326.594C326.594 312.072 326.6 312.359 326.612 312.645L327.863 312.593ZM327.237 313.245H367.037V311.993H327.237V313.245Z" fill="black"></path><g opacity="0.0736526"><path fill-rule="evenodd" clip-rule="evenodd" d="M325.071 300.047C325.071 300.047 321.767 304.595 320.585 307.59C319.403 310.584 320.042 312.787 320.042 312.787H314.678C314.678 312.787 314.576 307.731 317.36 304.415C320.145 301.099 325.071 300.047 325.071 300.047Z" fill="#000B1C" style="mix-blend-mode:multiply"></path></g><g opacity="0.0736526"><path fill-rule="evenodd" clip-rule="evenodd" d="M341.046 293.313C341.046 293.313 336.343 300.549 335.673 304.572C335.002 308.596 335.673 312.954 335.673 312.954L327.51 312.479C327.51 312.479 327.377 304.872 331.003 299.884C334.63 294.896 341.046 293.313 341.046 293.313Z" fill="#000B1C" style="mix-blend-mode:multiply"></path></g><path fill-rule="evenodd" clip-rule="evenodd" d="M493.174 312.632C493.192 312.191 493.201 311.747 493.201 311.302C493.201 293.768 478.987 279.554 461.453 279.554C443.919 279.554 429.706 293.768 429.706 311.302C429.706 311.747 429.715 312.191 429.733 312.632H493.174Z" fill="#8BA660"></path><path d="M493.174 312.632V313.258H493.774L493.799 312.658L493.174 312.632ZM429.733 312.632L429.108 312.658L429.132 313.258H429.733V312.632ZM492.575 311.302C492.575 311.739 492.566 312.174 492.548 312.607L493.799 312.658C493.817 312.208 493.827 311.756 493.827 311.302H492.575ZM461.453 280.18C478.641 280.18 492.575 294.113 492.575 311.302H493.827C493.827 293.422 479.333 278.928 461.453 278.928V280.18ZM430.331 311.302C430.331 294.113 444.265 280.18 461.453 280.18V278.928C443.574 278.928 429.08 293.422 429.08 311.302H430.331ZM430.358 312.607C430.34 312.174 430.331 311.739 430.331 311.302H429.08C429.08 311.756 429.089 312.208 429.108 312.658L430.358 312.607ZM429.733 313.258H493.174V312.007H429.733V313.258Z" fill="black"></path><g opacity="0.0736526"><path fill-rule="evenodd" clip-rule="evenodd" d="M451.342 281.438C451.342 281.438 444.685 293.152 443.295 299.543C441.905 305.935 444.563 312.619 444.563 312.619H429.557C429.557 312.619 428.494 305.925 435.559 294.185C442.624 282.444 451.342 281.438 451.342 281.438Z" fill="#000B1C" style="mix-blend-mode:multiply"></path></g><circle cx="73.8706" cy="227.724" r="29.2451" fill="#8BA660" stroke="black" stroke-width="1.2515"></circle><path fill-rule="evenodd" clip-rule="evenodd" d="M73.3319 219.946V312.575V219.946Z" fill="#8BA660"></path><path d="M73.3319 219.946V312.575" stroke="black" stroke-width="1.2515" stroke-linecap="round"></path><path fill-rule="evenodd" clip-rule="evenodd" d="M73.9339 240.636L86.1386 233.098L73.9339 240.636Z" fill="#8BA660"></path><path d="M73.9339 240.636L86.1386 233.098" stroke="black" stroke-width="1.2515" stroke-linecap="round"></path><path fill-rule="evenodd" clip-rule="evenodd" d="M73.0686 229.856L60.8639 222.318L73.0686 229.856Z" fill="#8BA660"></path><path d="M73.0686 229.856L60.8639 222.318" stroke="black" stroke-width="1.2515" stroke-linecap="round"></path><circle cx="99.8161" cy="268.672" r="13.4977" fill="#8BA660" stroke="black" stroke-width="1.2515"></circle><g opacity="0.0736526"><path fill-rule="evenodd" clip-rule="evenodd" d="M51.8311 208.621C51.8311 208.621 50.2099 223.172 54.0404 234.249C57.8709 245.326 68.18 255.9 68.18 255.9C68.18 255.9 50.9474 251.923 46.5288 237.784C42.1102 223.644 51.8311 208.621 51.8311 208.621Z" fill="#000B1C" style="mix-blend-mode:multiply"></path></g><g opacity="0.0736526"><path fill-rule="evenodd" clip-rule="evenodd" d="M91.809 257.061C91.809 257.061 89.9708 264.314 91.7835 270.12C93.5963 275.926 100.085 281.11 100.085 281.11C100.085 281.11 90.0364 280.363 87.1333 272.374C84.2302 264.386 91.809 257.061 91.809 257.061Z" fill="#000B1C" style="mix-blend-mode:multiply"></path></g><path fill-rule="evenodd" clip-rule="evenodd" d="M97.1252 270.542L98.8015 262.16L97.1252 270.542Z" fill="#8BA660"></path><path d="M97.1252 270.542L98.8015 262.16" stroke="black" stroke-width="1.2515" stroke-linecap="round"></path><path fill-rule="evenodd" clip-rule="evenodd" d="M73.5115 281.917L101.511 268.635L73.5115 281.917Z" fill="#8BA660"></path><path d="M73.5115 281.917L101.511 268.635" stroke="black" stroke-width="1.2515" stroke-linecap="round"></path></svg>