<svg xmlns="http://www.w3.org/2000/svg" width="633" height="314" viewBox="0 0 633 314" fill="none"><path fill-rule="evenodd" clip-rule="evenodd" d="M13.1251 313.07C13.1251 313.07 -24.6939 237.442 46.4597 164.047C110.036 98.4685 35.4466 92.4613 107.032 35.1427C152.515 -1.27499 213.59 -6.31813 251.455 6.10789C348.321 37.896 315.782 86.9547 389.12 101.722C462.458 116.49 495.933 79.8317 536.296 113.987C611.386 177.528 568.852 313.07 568.852 313.07H13.1251Z" fill="white" fill-opacity="0.09"></path><path d="M13.8101 312.496C13.4645 312.496 13.1843 312.776 13.1843 313.122C13.1843 313.467 13.4645 313.747 13.8101 313.747V312.496ZM25.5015 313.747C25.8471 313.747 26.1273 313.467 26.1273 313.122C26.1273 312.776 25.8471 312.496 25.5015 312.496V313.747ZM35.577 312.496C35.2314 312.496 34.9513 312.776 34.9513 313.122C34.9513 313.467 35.2314 313.747 35.577 313.747V312.496ZM533.177 313.747C533.522 313.747 533.802 313.467 533.802 313.122C533.802 312.776 533.522 312.496 533.177 312.496V313.747ZM539.283 312.52C538.937 312.52 538.657 312.8 538.657 313.145C538.657 313.491 538.937 313.771 539.283 313.771V312.52ZM548.672 313.771C549.017 313.771 549.297 313.491 549.297 313.145C549.297 312.8 549.017 312.52 548.672 312.52V313.771ZM552.556 312.496C552.21 312.496 551.93 312.776 551.93 313.122C551.93 313.467 552.21 313.747 552.556 313.747V312.496ZM569.005 313.747C569.351 313.747 569.631 313.467 569.631 313.122C569.631 312.776 569.351 312.496 569.005 312.496V313.747ZM13.8101 313.747H25.5015V312.496H13.8101V313.747ZM35.577 313.747H533.177V312.496H35.577V313.747ZM539.283 313.771H548.672V312.52H539.283V313.771ZM552.556 313.747H569.005V312.496H552.556V313.747Z" fill="black"></path><rect x="140.208" y="175.157" width="212.228" height="137.462" fill="#F1FAEE" stroke="black" stroke-width="1.2515"></rect><rect x="360" y="199" width="244" height="114" fill="#F1FAEE" stroke="black" stroke-width="1.2515"></rect><rect x="151.775" y="105.755" width="35.2037" height="63.702" fill="#EFF5FF" stroke="black" stroke-width="1.2515"></rect><rect x="143.561" y="101.211" width="51.6321" height="6.89088" rx="0.750899" fill="#EFF5FF" stroke="black" stroke-width="1.2515"></rect><g opacity="0.199162"><path fill-rule="evenodd" clip-rule="evenodd" d="M186.476 108.102H180.429V108.102H151.942V113.332H180.429V141.294H186.476V108.102Z" fill="#EFF5FF" style="mix-blend-mode:multiply"></path></g><path fill-rule="evenodd" clip-rule="evenodd" d="M367.251 82.2861L604 198.961L122 199.297L367.251 82.2861Z" fill="#EFF5FF" stroke="black" stroke-width="1.2515"></path><mask id="mask0_30_492" style="mask-type:luminance" maskUnits="userSpaceOnUse" x="121" y="81" width="484" height="119"><path fill-rule="evenodd" clip-rule="evenodd" d="M367.251 82.2861L604 198.961L122 199.297L367.251 82.2861Z" fill="white" stroke="white" stroke-width="1.2515"></path></mask><g mask="url(#mask0_30_492)"><rect x="141.581" y="82.9688" width="447.706" height="13.3009" stroke="black" stroke-width="1.2515"></rect><rect x="141.837" y="96.2695" width="447.706" height="13.3009" stroke="black" stroke-width="1.2515"></rect><rect x="141.837" y="109.345" width="447.706" height="13.3009" stroke="black" stroke-width="1.2515"></rect><rect x="141.837" y="122.421" width="447.706" height="13.3009" stroke="black" stroke-width="1.2515"></rect><rect x="141.837" y="135.497" width="447.706" height="13.3009" stroke="black" stroke-width="1.2515"></rect><rect x="141.837" y="148.572" width="447.706" height="13.3009" stroke="black" stroke-width="1.2515"></rect><rect x="141.837" y="161.648" width="447.706" height="13.3009" stroke="black" stroke-width="1.2515"></rect><rect x="141.837" y="174.724" width="447.706" height="13.3009" stroke="black" stroke-width="1.2515"></rect><rect x="141.837" y="187.799" width="447.706" height="13.3009" stroke="black" stroke-width="1.2515"></rect><mask id="mask1_30_492" style="mask-type:luminance" maskUnits="userSpaceOnUse" x="122" y="82" width="482" height="118"><path fill-rule="evenodd" clip-rule="evenodd" d="M367.251 82.2861L604 198.961L122 199.297L367.251 82.2861Z" fill="white"></path></mask><g mask="url(#mask1_30_492)"><g opacity="0.199162"><rect x="160.439" y="187.575" width="405.734" height="5.04624" fill="#EFF5FF" style="mix-blend-mode:multiply"></rect></g><g opacity="0.199162"><rect x="160.439" y="174.328" width="405.734" height="5.04624" fill="#EFF5FF" style="mix-blend-mode:multiply"></rect></g><g opacity="0.199162"><rect x="160.439" y="161.253" width="405.734" height="5.04624" fill="#EFF5FF" style="mix-blend-mode:multiply"></rect></g><g opacity="0.199162"><rect x="160.439" y="148.238" width="405.734" height="5.04624" fill="#EFF5FF" style="mix-blend-mode:multiply"></rect></g><g opacity="0.199162"><rect x="160.439" y="135.222" width="405.734" height="5.04624" fill="#EFF5FF" style="mix-blend-mode:multiply"></rect></g><g opacity="0.199162"><rect x="160.439" y="122.207" width="405.734" height="5.04624" fill="#EFF5FF" style="mix-blend-mode:multiply"></rect></g><g opacity="0.199162"><rect x="160.439" y="109.191" width="405.734" height="5.04624" fill="#EFF5FF" style="mix-blend-mode:multiply"></rect></g></g></g><path fill-rule="evenodd" clip-rule="evenodd" d="M247.495 82.2861L368.864 198.961L121.768 199.297L247.495 82.2861Z" fill="#EFF5FF" stroke="black" stroke-width="1.2515"></path><mask id="mask2_30_492" style="mask-type:luminance" maskUnits="userSpaceOnUse" x="120" y="81" width="251" height="119"><path fill-rule="evenodd" clip-rule="evenodd" d="M247.495 82.2861L368.864 198.961L121.768 199.297L247.495 82.2861Z" fill="white" stroke="white" stroke-width="1.2515"></path></mask><g mask="url(#mask2_30_492)"><rect x="131.806" y="82.9688" width="229.516" height="13.3009" stroke="black" stroke-width="1.2515"></rect><rect x="131.937" y="96.2695" width="229.516" height="13.3009" stroke="black" stroke-width="1.2515"></rect><rect x="131.937" y="109.345" width="229.516" height="13.3009" stroke="black" stroke-width="1.2515"></rect><rect x="131.937" y="122.421" width="229.516" height="13.3009" stroke="black" stroke-width="1.2515"></rect><rect x="131.937" y="135.497" width="229.516" height="13.3009" stroke="black" stroke-width="1.2515"></rect><rect x="131.937" y="148.572" width="229.516" height="13.3009" stroke="black" stroke-width="1.2515"></rect><rect x="131.937" y="161.648" width="229.516" height="13.3009" stroke="black" stroke-width="1.2515"></rect><rect x="131.937" y="174.724" width="229.516" height="13.3009" stroke="black" stroke-width="1.2515"></rect><rect x="131.937" y="187.799" width="229.516" height="13.3009" stroke="black" stroke-width="1.2515"></rect><mask id="mask3_30_492" style="mask-type:luminance" maskUnits="userSpaceOnUse" x="121" y="82" width="248" height="118"><path fill-rule="evenodd" clip-rule="evenodd" d="M247.495 82.2861L368.864 198.961L121.768 199.297L247.495 82.2861Z" fill="white"></path></mask><g mask="url(#mask3_30_492)"><g opacity="0.199162"><rect x="141.473" y="187.575" width="207.999" height="5.04624" fill="#EFF5FF" style="mix-blend-mode:multiply"></rect></g><g opacity="0.199162"><rect x="141.473" y="174.328" width="207.999" height="5.04624" fill="#EFF5FF" style="mix-blend-mode:multiply"></rect></g><g opacity="0.199162"><rect x="141.473" y="161.253" width="207.999" height="5.04624" fill="#EFF5FF" style="mix-blend-mode:multiply"></rect></g><g opacity="0.199162"><rect x="141.473" y="148.238" width="207.999" height="5.04624" fill="#EFF5FF" style="mix-blend-mode:multiply"></rect></g><g opacity="0.199162"><rect x="141.473" y="135.222" width="207.999" height="5.04624" fill="#EFF5FF" style="mix-blend-mode:multiply"></rect></g><g opacity="0.199162"><rect x="141.473" y="122.207" width="207.999" height="5.04624" fill="#EFF5FF" style="mix-blend-mode:multiply"></rect></g><g opacity="0.199162"><rect x="141.473" y="109.191" width="207.999" height="5.04624" fill="#EFF5FF" style="mix-blend-mode:multiply"></rect></g></g></g><path fill-rule="evenodd" clip-rule="evenodd" d="M229.303 230.893C229.303 230.478 229.639 230.142 230.054 230.142H320.501C320.915 230.142 321.252 230.478 321.252 230.893V261.606C321.252 262.021 320.915 262.357 320.501 262.357H230.054C229.639 262.357 229.303 262.021 229.303 261.606V246.532V230.893Z" fill="#A8DADC" stroke="black" stroke-width="1.2515"></path><path fill-rule="evenodd" clip-rule="evenodd" d="M230.014 235.189H321.016Z" fill="#EFF5FF"></path><path d="M230.014 235.189H321.016" stroke="black" stroke-width="0.5006"></path><path fill-rule="evenodd" clip-rule="evenodd" d="M230.014 240.926H321.016Z" fill="#EFF5FF"></path><path d="M230.014 240.926H321.016" stroke="black" stroke-width="0.5006"></path><path fill-rule="evenodd" clip-rule="evenodd" d="M230.014 246.663H321.016Z" fill="#EFF5FF"></path><path d="M230.014 246.663H321.016" stroke="black" stroke-width="0.5006"></path><path fill-rule="evenodd" clip-rule="evenodd" d="M230.014 252.4H321.016Z" fill="#EFF5FF"></path><path d="M230.014 252.4H321.016" stroke="black" stroke-width="0.5006"></path><path fill-rule="evenodd" clip-rule="evenodd" d="M230.014 258.137H321.016Z" fill="#EFF5FF"></path><path d="M230.014 258.137H321.016" stroke="black" stroke-width="0.5006"></path><path fill-rule="evenodd" clip-rule="evenodd" d="M275.277 230.98V261.49Z" fill="#EFF5FF"></path><path d="M275.277 230.98V261.49" stroke="black" stroke-width="1.2515"></path><rect x="224.657" y="262.328" width="101.713" height="3.38188" rx="0.750899" fill="#EFF5FF" stroke="black" stroke-width="1.2515"></rect><g style="mix-blend-mode:overlay"><g style="mix-blend-mode:multiply" opacity="0.536005"><path fill-rule="evenodd" clip-rule="evenodd" d="M247.188 239.945H252.957L244.078 255.395H238.181L247.188 239.945Z" fill="white"></path></g><g style="mix-blend-mode:multiply" opacity="0.536005"><path fill-rule="evenodd" clip-rule="evenodd" d="M258.719 239.945H264.489L255.862 255.395H249.966L258.719 239.945Z" fill="white"></path></g></g><g style="mix-blend-mode:overlay"><g style="mix-blend-mode:multiply" opacity="0.536005"><path fill-rule="evenodd" clip-rule="evenodd" d="M292.01 239.945H297.78L288.9 255.395H283.003L292.01 239.945Z" fill="white"></path></g><g style="mix-blend-mode:multiply" opacity="0.536005"><path fill-rule="evenodd" clip-rule="evenodd" d="M303.541 239.945H309.311L300.685 255.395H294.788L303.541 239.945Z" fill="white"></path></g></g><g opacity="0.0736526"><path fill-rule="evenodd" clip-rule="evenodd" d="M314.322 230.142H229.777V232.887H314.322V262.357H321.726V230.142H321.726H314.322Z" fill="#EFF5FF" style="mix-blend-mode:multiply"></path></g><g opacity="0.0736526"><rect x="220" y="264.675" width="104.205" height="3.90845" rx="0.750899" fill="#EFF5FF" style="mix-blend-mode:multiply"></rect></g><rect x="160.66" y="230.142" width="37.8859" height="82.4773" rx="0.750899" fill="#EFF5FF" stroke="black" stroke-width="1.2515"></rect><rect x="156.431" y="307.59" width="46.3425" height="5.0291" rx="0.750899" fill="#EFF5FF" stroke="black" stroke-width="1.2515"></rect><rect x="167.969" y="238.188" width="23.2675" height="17.4342" rx="0.750899" fill="#A8DADC" stroke="black" stroke-width="1.2515"></rect><g style="mix-blend-mode:overlay"><g style="mix-blend-mode:multiply" opacity="0.536005"><path fill-rule="evenodd" clip-rule="evenodd" d="M176.782 243.767H178.892L175.645 252.151H173.489L176.782 243.767Z" fill="white"></path></g><g style="mix-blend-mode:multiply" opacity="0.536005"><path fill-rule="evenodd" clip-rule="evenodd" d="M180.998 243.767H183.108L179.954 252.151H177.798L180.998 243.767Z" fill="white"></path></g></g><g opacity="0.0736526"><path fill-rule="evenodd" clip-rule="evenodd" d="M191.182 238.066H168.023V241.309H188.076V255.206H191.182V238.066L191.182 238.066Z" fill="#EFF5FF" style="mix-blend-mode:multiply"></path></g><path fill-rule="evenodd" clip-rule="evenodd" d="M192.678 270.542V275.907Z" fill="#8BA660"></path><path d="M192.678 270.542V275.907" stroke="black" stroke-width="1.2515" stroke-linecap="round"></path><g opacity="0.0736526"><path fill-rule="evenodd" clip-rule="evenodd" d="M198.21 230.142H195.076L160.995 230.142V233.385H195.076V308.213H198.21V230.142Z" fill="#EFF5FF" style="mix-blend-mode:multiply"></path></g><rect x="417.233" y="230.142" width="127.533" height="82.4773" rx="0.750899" fill="#E1E1E1" stroke="black" stroke-width="1.2515"></rect><rect x="441.838" y="238.188" width="78.3239" height="17.4342" rx="0.750899" fill="#D6FDFF" stroke="black" stroke-width="1.2515"></rect><g style="mix-blend-mode:overlay"><g style="mix-blend-mode:multiply" opacity="0.536005"><path fill-rule="evenodd" clip-rule="evenodd" d="M471.507 243.767H478.608L467.679 252.151H460.422L471.507 243.767Z" fill="white"></path></g><g style="mix-blend-mode:multiply" opacity="0.536005"><path fill-rule="evenodd" clip-rule="evenodd" d="M485.7 243.767H492.801L482.184 252.151H474.927L485.7 243.767Z" fill="white"></path></g></g><g opacity="0.0736526"><path fill-rule="evenodd" clip-rule="evenodd" d="M519.979 238.066H442.02V241.309H509.523V255.206H519.979V241.309V238.066V238.066Z" fill="#EFF5FF" style="mix-blend-mode:multiply"></path></g><path fill-rule="evenodd" clip-rule="evenodd" d="M525.016 270.542V275.907Z" fill="#8BA660"></path><path d="M525.016 270.542V275.907" stroke="black" stroke-width="1.2515" stroke-linecap="round"></path><g opacity="0.0736526"><path fill-rule="evenodd" clip-rule="evenodd" d="M533.086 230.142H418.361V233.385H533.086V308.213H543.637L543.637 233.385V230.142H533.086Z" fill="#EFF5FF" style="mix-blend-mode:multiply"></path></g><circle cx="213.004" cy="240.867" r="4.02328" fill="#F9F3A5" stroke="black" stroke-width="1.2515"></circle><g opacity="0.0736526"><path fill-rule="evenodd" clip-rule="evenodd" d="M210.639 237.317C210.639 237.317 210.947 239.959 212.269 241.341C213.592 242.722 215.768 243.444 215.768 243.444C215.768 243.444 213.142 245.665 210.664 243.539C208.187 241.413 210.639 237.317 210.639 237.317Z" fill="#EFF5FF" style="mix-blend-mode:multiply"></path></g><circle cx="333.43" cy="240.867" r="4.02328" fill="#F9F3A5" stroke="black" stroke-width="1.2515"></circle><g opacity="0.0736526"><path fill-rule="evenodd" clip-rule="evenodd" d="M331.064 237.317C331.064 237.317 331.372 239.959 332.695 241.341C334.018 242.722 336.194 243.444 336.194 243.444C336.194 243.444 333.567 245.665 331.09 243.539C328.613 241.413 331.064 237.317 331.064 237.317Z" fill="#EFF5FF" style="mix-blend-mode:multiply"></path></g><circle cx="246.476" cy="130.552" r="19.558" fill="#EFF5FF" stroke="black" stroke-width="1.2515"></circle><circle cx="246.476" cy="130.552" r="14.7387" fill="#A8DADC" stroke="black" stroke-width="1.2515"></circle><mask id="mask4_30_492" style="mask-type:luminance" maskUnits="userSpaceOnUse" x="231" y="115" width="31" height="31"><circle cx="246.476" cy="130.552" r="14.7387" fill="white" stroke="white" stroke-width="1.2515"></circle></mask><g mask="url(#mask4_30_492)"><path fill-rule="evenodd" clip-rule="evenodd" d="M246.589 115.927V144.954Z" fill="white"></path><path d="M246.589 115.927V144.954" stroke="black" stroke-width="1.2515"></path><path fill-rule="evenodd" clip-rule="evenodd" d="M232.077 130.439H261.105Z" fill="white"></path><path d="M232.077 130.439H261.105" stroke="black" stroke-width="1.2515"></path><g style="mix-blend-mode:overlay"><g style="mix-blend-mode:multiply" opacity="0.536005"><path fill-rule="evenodd" clip-rule="evenodd" d="M243.205 124.874H246.906L241.211 136.522H237.429L243.205 124.874Z" fill="white"></path></g><g style="mix-blend-mode:multiply" opacity="0.536005"><path fill-rule="evenodd" clip-rule="evenodd" d="M250.601 124.874H254.302L248.769 136.522H244.987L250.601 124.874Z" fill="white"></path></g></g></g><g opacity="0.199162"><ellipse cx="246.487" cy="123.022" rx="14.9701" ry="7.20838" fill="#EFF5FF" style="mix-blend-mode:multiply"></ellipse></g><mask id="mask5_30_492" style="mask-type:luminance" maskUnits="userSpaceOnUse" x="231" y="115" width="31" height="16"><ellipse cx="246.487" cy="123.022" rx="14.9701" ry="7.20838" fill="white"></ellipse><ellipse cx="246.487" cy="123.022" rx="14.9701" ry="7.20838" stroke="white"></ellipse></mask><g mask="url(#mask5_30_492)"></g><rect x="148.885" y="259.666" width="5.44695" height="8.36154" rx="0.750899" fill="#EFF5FF" stroke="black" stroke-width="1.2515"></rect><circle cx="151.567" cy="264.181" r="0.670194" fill="black"></circle><g opacity="0.0736526"><path fill-rule="evenodd" clip-rule="evenodd" d="M154.35 259.634H149.406V261.386H152.452V267.642H154.546V260.199H154.35V259.634Z" fill="#EFF5FF" style="mix-blend-mode:multiply"></path></g><rect x="139.202" y="198.961" width="212.228" height="13.4109" fill="#EFF5FF" stroke="black" stroke-width="1.2515"></rect><g opacity="0.199162"><path fill-rule="evenodd" clip-rule="evenodd" d="M137.258 200.566L130.485 190.584L245.274 83.6372L246.07 84.433L246.866 83.6372L361.655 190.584L354.882 200.566L246.07 101.316L137.258 200.566Z" fill="#EFF5FF" style="mix-blend-mode:multiply"></path></g><g opacity="0.0453465"><path fill-rule="evenodd" clip-rule="evenodd" d="M351.6 211.702H140.543V219.217H343.768V301.89H356.459V213.043H351.6V211.702Z" fill="#EFF5FF" style="mix-blend-mode:multiply"></path></g><rect x="351.43" y="184.577" width="9.72293" height="128.042" fill="#EFF5FF" stroke="black" stroke-width="1.2515"></rect><rect x="130.485" y="184.577" width="9.72293" height="128.042" fill="#EFF5FF" stroke="black" stroke-width="1.2515"></rect><path fill-rule="evenodd" clip-rule="evenodd" d="M246.453 76.5637C246.251 76.5484 246.044 76.6144 245.884 76.7633L113.935 199.808C113.632 200.09 113.615 200.566 113.898 200.869L119.276 206.636C119.559 206.939 120.034 206.956 120.337 206.673L246.453 89.0689L372.568 206.673C372.871 206.956 373.346 206.939 373.629 206.636L379.007 200.869C379.29 200.566 379.274 200.09 378.97 199.808L247.021 76.7633C246.862 76.6144 246.654 76.5484 246.453 76.5637Z" fill="#EFF5FF"></path><path d="M245.884 76.7633L246.311 77.2209L246.311 77.2209L245.884 76.7633ZM246.453 76.5637L246.406 77.1876L246.453 77.1912L246.5 77.1876L246.453 76.5637ZM113.935 199.808L114.362 200.265L114.362 200.265L113.935 199.808ZM113.898 200.869L114.356 200.442L114.356 200.442L113.898 200.869ZM119.276 206.636L118.819 207.063L118.819 207.063L119.276 206.636ZM120.337 206.673L120.764 207.131L120.764 207.131L120.337 206.673ZM246.453 89.0689L246.879 88.6113L246.453 88.2133L246.026 88.6113L246.453 89.0689ZM372.568 206.673L372.995 206.216L372.995 206.216L372.568 206.673ZM373.629 206.636L374.087 207.063L374.087 207.063L373.629 206.636ZM379.007 200.869L378.55 200.442L378.55 200.442L379.007 200.869ZM378.97 199.808L379.397 199.35L379.397 199.35L378.97 199.808ZM247.021 76.7633L246.595 77.2209L246.595 77.2209L247.021 76.7633ZM246.311 77.2209C246.337 77.1961 246.371 77.185 246.406 77.1876L246.5 75.9397C246.131 75.9119 245.75 76.0326 245.457 76.3056L246.311 77.2209ZM114.362 200.265L246.311 77.2209L245.457 76.3056L113.508 199.35L114.362 200.265ZM114.356 200.442C114.309 200.392 114.311 200.312 114.362 200.265L113.508 199.35C112.952 199.868 112.922 200.74 113.44 201.296L114.356 200.442ZM119.734 206.209L114.356 200.442L113.44 201.296L118.819 207.063L119.734 206.209ZM119.911 206.216C119.86 206.263 119.781 206.26 119.734 206.209L118.819 207.063C119.337 207.619 120.208 207.649 120.764 207.131L119.911 206.216ZM246.026 88.6113L119.911 206.216L120.764 207.131L246.879 89.5265L246.026 88.6113ZM246.026 89.5265L372.141 207.131L372.995 206.216L246.879 88.6113L246.026 89.5265ZM372.141 207.131C372.697 207.649 373.568 207.619 374.087 207.063L373.171 206.209C373.124 206.26 373.045 206.263 372.995 206.216L372.141 207.131ZM374.087 207.063L379.465 201.296L378.55 200.442L373.171 206.209L374.087 207.063ZM379.465 201.296C379.983 200.74 379.953 199.868 379.397 199.35L378.543 200.265C378.594 200.312 378.597 200.392 378.55 200.442L379.465 201.296ZM379.397 199.35L247.448 76.3056L246.595 77.2209L378.543 200.265L379.397 199.35ZM247.448 76.3056C247.155 76.0327 246.774 75.9119 246.406 75.9397L246.5 77.1876C246.535 77.185 246.568 77.1961 246.595 77.2209L247.448 76.3056Z" fill="black"></path><path fill-rule="evenodd" clip-rule="evenodd" d="M312.494 282.002H328.266Z" fill="#EFF5FF"></path><path d="M312.494 282.002H328.266" stroke="#E2ECDE" stroke-width="1.2515" stroke-linecap="round"></path><path fill-rule="evenodd" clip-rule="evenodd" d="M312.494 286.765H337.64Z" fill="#EFF5FF"></path><path d="M312.494 286.765H337.64" stroke="#E2ECDE" stroke-width="1.2515" stroke-linecap="round"></path><path fill-rule="evenodd" clip-rule="evenodd" d="M307.8 291.277H332.946Z" fill="#EFF5FF"></path><path d="M307.8 291.277H332.946" stroke="#E2ECDE" stroke-width="1.2515" stroke-linecap="round"></path><path fill-rule="evenodd" clip-rule="evenodd" d="M317.188 282.236V286.212Z" fill="#EFF5FF"></path><path d="M317.188 282.236V286.212" stroke="#E2ECDE" stroke-width="1.2515"></path><path fill-rule="evenodd" clip-rule="evenodd" d="M321.276 287.202V291.179Z" fill="#EFF5FF"></path><path d="M321.276 287.202V291.179" stroke="#E2ECDE" stroke-width="1.2515"></path><path fill-rule="evenodd" clip-rule="evenodd" d="M326.371 282.236V286.212Z" fill="#EFF5FF"></path><path d="M326.371 282.236V286.212" stroke="#E2ECDE" stroke-width="1.2515"></path><path fill-rule="evenodd" clip-rule="evenodd" d="M330.458 287.202V291.179Z" fill="#EFF5FF"></path><path d="M330.458 287.202V291.179" stroke="#E2ECDE" stroke-width="1.2515"></path><path fill-rule="evenodd" clip-rule="evenodd" d="M263.635 296.504H247.862Z" fill="#EFF5FF"></path><path d="M263.635 296.504H247.862" stroke="#E2ECDE" stroke-width="1.2515" stroke-linecap="round"></path><path fill-rule="evenodd" clip-rule="evenodd" d="M263.635 301.267H238.489Z" fill="#EFF5FF"></path><path d="M263.635 301.267H238.489" stroke="#E2ECDE" stroke-width="1.2515" stroke-linecap="round"></path><path fill-rule="evenodd" clip-rule="evenodd" d="M268.328 305.779H243.183Z" fill="#EFF5FF"></path><path d="M268.328 305.779H243.183" stroke="#E2ECDE" stroke-width="1.2515" stroke-linecap="round"></path><path fill-rule="evenodd" clip-rule="evenodd" d="M258.941 296.738V300.714Z" fill="#EFF5FF"></path><path d="M258.941 296.738V300.714" stroke="#E2ECDE" stroke-width="1.2515"></path><path fill-rule="evenodd" clip-rule="evenodd" d="M254.853 301.704V305.681Z" fill="#EFF5FF"></path><path d="M254.853 301.704V305.681" stroke="#E2ECDE" stroke-width="1.2515"></path><path fill-rule="evenodd" clip-rule="evenodd" d="M249.758 296.738V300.714Z" fill="#EFF5FF"></path><path d="M249.758 296.738V300.714" stroke="#E2ECDE" stroke-width="1.2515"></path><path fill-rule="evenodd" clip-rule="evenodd" d="M245.67 301.704V305.681Z" fill="#EFF5FF"></path><path d="M245.67 301.704V305.681" stroke="#E2ECDE" stroke-width="1.2515"></path><path fill-rule="evenodd" clip-rule="evenodd" d="M339.878 312.619C339.886 312.443 339.889 312.266 339.889 312.088C339.889 305.091 334.217 299.419 327.22 299.419C320.223 299.419 314.551 305.091 314.551 312.088C314.551 312.266 314.555 312.443 314.562 312.619H339.878Z" fill="#8BA660"></path><path d="M339.878 312.619V313.245H340.479L340.504 312.645L339.878 312.619ZM314.562 312.619L313.937 312.645L313.962 313.245H314.562V312.619ZM339.264 312.088C339.264 312.257 339.26 312.426 339.253 312.593L340.504 312.645C340.511 312.46 340.515 312.275 340.515 312.088H339.264ZM327.22 300.045C333.872 300.045 339.264 305.437 339.264 312.088H340.515C340.515 304.745 334.563 298.793 327.22 298.793V300.045ZM315.177 312.088C315.177 305.437 320.569 300.045 327.22 300.045V298.793C319.878 298.793 313.926 304.745 313.926 312.088H315.177ZM315.187 312.593C315.181 312.426 315.177 312.257 315.177 312.088H313.926C313.926 312.275 313.929 312.46 313.937 312.645L315.187 312.593ZM314.562 313.245H339.878V311.993H314.562V313.245Z" fill="black"></path><path fill-rule="evenodd" clip-rule="evenodd" d="M367.037 312.619C367.049 312.342 367.054 312.064 367.054 311.784C367.054 300.784 358.137 291.867 347.137 291.867C336.137 291.867 327.22 300.784 327.22 311.784C327.22 312.064 327.226 312.342 327.237 312.619H367.037Z" fill="#8BA660"></path><path d="M367.037 312.619V313.245H367.638L367.662 312.645L367.037 312.619ZM327.237 312.619L326.612 312.645L326.637 313.245H327.237V312.619ZM366.429 311.784C366.429 312.055 366.423 312.325 366.412 312.593L367.662 312.645C367.674 312.359 367.68 312.073 367.68 311.784H366.429ZM347.137 292.493C357.792 292.493 366.429 301.13 366.429 311.784H367.68C367.68 300.439 358.483 291.241 347.137 291.241V292.493ZM327.846 311.784C327.846 301.13 336.483 292.493 347.137 292.493V291.241C335.792 291.241 326.594 300.439 326.594 311.784H327.846ZM327.863 312.593C327.852 312.325 327.846 312.055 327.846 311.784H326.594C326.594 312.073 326.6 312.359 326.612 312.645L327.863 312.593ZM327.237 313.245H367.037V311.993H327.237V313.245Z" fill="black"></path><g opacity="0.0736526"><path fill-rule="evenodd" clip-rule="evenodd" d="M325.071 300.047C325.071 300.047 321.767 304.596 320.585 307.59C319.403 310.584 320.042 312.787 320.042 312.787H314.678C314.678 312.787 314.576 307.731 317.36 304.415C320.145 301.099 325.071 300.047 325.071 300.047Z" fill="#EFF5FF" style="mix-blend-mode:multiply"></path></g><g opacity="0.0736526"><path fill-rule="evenodd" clip-rule="evenodd" d="M341.046 293.313C341.046 293.313 336.343 300.549 335.673 304.573C335.002 308.596 335.673 312.954 335.673 312.954L327.51 312.479C327.51 312.479 327.377 304.873 331.003 299.884C334.63 294.896 341.046 293.313 341.046 293.313Z" fill="#EFF5FF" style="mix-blend-mode:multiply"></path></g><path fill-rule="evenodd" clip-rule="evenodd" d="M631.756 312.632C631.774 312.191 631.783 311.747 631.783 311.301C631.783 293.768 617.569 279.554 600.035 279.554C582.502 279.554 568.288 293.768 568.288 311.301C568.288 311.747 568.297 312.191 568.315 312.632H631.756Z" fill="#8BA660"></path><path d="M631.756 312.632V313.258H632.356L632.381 312.658L631.756 312.632ZM568.315 312.632L567.69 312.658L567.715 313.258H568.315V312.632ZM631.157 311.301C631.157 311.739 631.148 312.174 631.13 312.606L632.381 312.658C632.399 312.208 632.409 311.756 632.409 311.301H631.157ZM600.035 280.179C617.223 280.179 631.157 294.113 631.157 311.301H632.409C632.409 293.422 617.915 278.928 600.035 278.928V280.179ZM568.913 311.301C568.913 294.113 582.847 280.179 600.035 280.179V278.928C582.156 278.928 567.662 293.422 567.662 311.301H568.913ZM568.94 312.606C568.922 312.174 568.913 311.739 568.913 311.301H567.662C567.662 311.756 567.671 312.208 567.69 312.658L568.94 312.606ZM568.315 313.258H631.756V312.006H568.315V313.258Z" fill="black"></path><g opacity="0.0736526"><path fill-rule="evenodd" clip-rule="evenodd" d="M589.924 281.438C589.924 281.438 583.267 293.152 581.877 299.543C580.488 305.935 583.145 312.619 583.145 312.619H568.139C568.139 312.619 567.076 305.925 574.141 294.185C581.206 282.444 589.924 281.438 589.924 281.438Z" fill="#EFF5FF" style="mix-blend-mode:multiply"></path></g><circle cx="74.2906" cy="181.291" r="45.2906" fill="#8BA660" stroke="black" stroke-width="1.93814"></circle><path fill-rule="evenodd" clip-rule="evenodd" d="M73.4569 169.245V312.696Z" fill="#8BA660"></path><path d="M73.4569 169.245V312.696" stroke="black" stroke-width="1.93814" stroke-linecap="round"></path><path fill-rule="evenodd" clip-rule="evenodd" d="M74.3893 201.287L93.2902 189.613Z" fill="#8BA660"></path><path d="M74.3893 201.287L93.2902 189.613" stroke="black" stroke-width="1.93814" stroke-linecap="round"></path><path fill-rule="evenodd" clip-rule="evenodd" d="M73.0482 184.592L54.1473 172.918Z" fill="#8BA660"></path><path d="M73.0482 184.592L54.1473 172.918" stroke="black" stroke-width="1.93814" stroke-linecap="round"></path><circle cx="114.471" cy="244.705" r="20.9033" fill="#8BA660" stroke="black" stroke-width="1.93814"></circle><g opacity="0.0736526"><path fill-rule="evenodd" clip-rule="evenodd" d="M40.1595 151.707C40.1595 151.707 37.6488 174.24 43.5809 191.395C49.5131 208.551 65.4783 224.926 65.4783 224.926C65.4783 224.926 38.7909 218.767 31.948 196.87C25.1051 174.972 40.1595 151.707 40.1595 151.707Z" fill="#EFF5FF" style="mix-blend-mode:multiply"></path></g><g opacity="0.0736526"><path fill-rule="evenodd" clip-rule="evenodd" d="M102.071 226.724C102.071 226.724 99.2245 237.956 102.032 246.947C104.839 255.938 114.887 263.967 114.887 263.967C114.887 263.967 99.3262 262.81 94.8302 250.439C90.3342 238.068 102.071 226.724 102.071 226.724Z" fill="#EFF5FF" style="mix-blend-mode:multiply"></path></g><path fill-rule="evenodd" clip-rule="evenodd" d="M110.304 247.601L112.9 234.62Z" fill="#8BA660"></path><path d="M110.304 247.601L112.9 234.62" stroke="black" stroke-width="1.93814" stroke-linecap="round"></path><path fill-rule="evenodd" clip-rule="evenodd" d="M73.7345 265.217L117.095 244.649Z" fill="#8BA660"></path><path d="M73.7345 265.217L117.095 244.649" stroke="black" stroke-width="1.93814" stroke-linecap="round"></path></svg>